<?xml version="1.0" standalone="no"?><svg xmlns="http://www.w3.org/2000/svg" viewBox="0 0 1440 320"><path fill="#0099ff" fill-opacity="1" d="M0,224L21.8,197.3C43.6,171,87,117,131,101.3C174.5,85,218,107,262,106.7C305.5,107,349,85,393,112C436.4,139,480,213,524,250.7C567.3,288,611,288,655,277.3C698.2,267,742,245,785,234.7C829.1,224,873,224,916,224C960,224,1004,224,1047,202.7C1090.9,181,1135,139,1178,144C1221.8,149,1265,203,1309,208C1352.7,213,1396,171,1418,149.3L1440,128L1440,320L1418.2,320C1396.4,320,1353,320,1309,320C1265.5,320,1222,320,1178,320C1134.5,320,1091,320,1047,320C1003.6,320,960,320,916,320C872.7,320,829,320,785,320C741.8,320,698,320,655,320C610.9,320,567,320,524,320C480,320,436,320,393,320C349.1,320,305,320,262,320C218.2,320,175,320,131,320C87.3,320,44,320,22,320L0,320Z"></path></svg>